<svg width="376" height="376" viewBox="0 0 376 376" fill="none" xmlns="http://www.w3.org/2000/svg">
<rect width="376" height="376" fill="black"/>
<path d="M282.275 91.925L233 75.5C233 87.4347 228.259 98.8807 219.82 107.32C211.381 115.759 199.935 120.5 188 120.5C176.065 120.5 164.619 115.759 156.18 107.32C147.741 98.8807 143 87.4347 143 75.5L93.7249 91.925C88.633 93.6214 84.3152 97.0822 81.5508 101.683C78.7864 106.283 77.7576 111.72 78.6499 117.013L85.1749 156.05C85.6033 158.693 86.9601 161.096 89.0015 162.828C91.0429 164.56 93.6352 165.508 96.3124 165.5H120.5V278C120.5 290.375 130.625 300.5 143 300.5H233C238.967 300.5 244.69 298.129 248.91 293.91C253.129 289.69 255.5 283.967 255.5 278V165.5H279.687C282.365 165.508 284.957 164.56 286.998 162.828C289.04 161.096 290.397 158.693 290.825 156.05L297.35 117.013C298.242 111.72 297.213 106.283 294.449 101.683C291.685 97.0822 287.367 93.6214 282.275 91.925Z" stroke="white" stroke-width="18" stroke-linecap="round" stroke-linejoin="round"/>
</svg>
